<?xml version="1.0" standalone="no"?>
<!DOCTYPE svg PUBLIC "-//W3C//DTD SVG 20010904//EN"
 "http://www.w3.org/TR/2001/REC-SVG-20010904/DTD/svg10.dtd">
<svg version="1.0" xmlns="http://www.w3.org/2000/svg"
 width="700.000000pt" height="700.000000pt" viewBox="0 0 700.000000 700.000000"
 preserveAspectRatio="xMidYMid meet">
<metadata>
Created by potrace 1.14, written by Peter Selinger 2001-2017
</metadata>
<g transform="translate(0.000000,700.000000) scale(0.100000,-0.100000)"
fill="#000000" stroke="none">
<path d="M3288 6993 c12 -2 30 -2 40 0 9 3 -1 5 -23 4 -22 0 -30 -2 -17 -4z"/>
<path d="M3646 6991 c259 -18 504 -59 747 -125 395 -109 843 -333 1161 -580
l53 -41 -71 -79 -72 -79 -95 70 c-425 313 -903 509 -1454 593 -201 31 -592 39
-805 16 -660 -72 -1246 -318 -1747 -733 -128 -106 -358 -341 -462 -472 -347
-437 -564 -938 -654 -1511 -29 -186 -31 -681 -4 -865 91 -608 332 -1150 711
-1600 l84 -100 -71 -73 c-39 -39 -75 -72 -79 -72 -3 0 -40 39 -81 88 -472 558
-748 1240 -797 1972 -8 115 -8 111 -5 -60 15 -677 278 -1405 709 -1964 34 -43
69 -89 80 -103 l18 -23 -218 -226 c-121 -125 -232 -242 -248 -261 l-29 -35 29
-28 29 -29 255 248 c140 137 258 247 262 244 5 -2 12 -12 18 -23 8 -16 -14
-41 -158 -176 -92 -87 -168 -163 -170 -169 -1 -6 9 -22 23 -35 22 -21 26 -22
42 -8 10 8 91 79 181 157 l164 142 83 -80 c174 -164 318 -278 510 -403 448
-292 919 -467 1465 -544 182 -25 598 -30 800 -9 1187 122 2251 839 2778 1872
210 413 325 810 363 1260 17 211 7 659 -20 833 -95 618 -301 1122 -654 1604
l-51 69 69 62 69 62 -89 103 c-50 56 -100 114 -112 129 l-21 26 -24 -20 c-12
-10 -43 -39 -68 -62 l-46 -43 -68 69 -69 69 82 79 81 78 -125 128 -126 128
-88 -93 -89 -93 -43 32 c-177 130 -434 284 -617 369 -414 192 -887 308 -1302
319 l-155 4 121 -8z m2293 -1046 c35 -36 61 -68 59 -73 -2 -4 -36 -38 -75 -76
l-73 -69 -64 69 -64 69 71 73 c39 39 74 72 78 72 3 0 34 -29 68 -65z m302
-358 c345 -479 547 -989 626 -1582 24 -181 24 -617 -1 -800 -54 -414 -159
-754 -341 -1115 -509 -1004 -1488 -1694 -2620 -1845 -160 -22 -423 -31 -625
-23 -779 31 -1541 337 -2124 852 l-69 60 49 44 c27 23 63 54 81 68 l32 26 106
-89 c474 -394 1040 -642 1670 -730 182 -25 664 -25 845 1 735 104 1369 415
1875 921 795 794 1109 1925 835 3005 -89 349 -230 662 -438 975 -41 60 -74
113 -75 117 -2 7 144 138 153 138 3 -1 12 -11 21 -23z m-1166 2 c201 -28 337
-90 444 -204 114 -122 157 -267 148 -495 -8 -199 -50 -328 -161 -494 -78 -117
-167 -209 -361 -375 -358 -307 -481 -461 -546 -684 -18 -60 -28 -79 -44 -82
-11 -2 -126 -18 -255 -35 -129 -17 -245 -32 -256 -34 -19 -2 -23 3 -28 43 -7
59 9 252 30 345 21 92 63 204 113 305 99 196 179 298 468 593 252 259 293 313
293 388 0 42 -34 94 -80 123 -43 27 -145 20 -221 -15 -118 -54 -377 -245 -545
-401 l-71 -66 -143 292 -142 292 48 43 c375 335 896 519 1309 461z m-2100 -77
c135 -61 218 -209 217 -387 0 -151 -47 -261 -155 -369 -60 -60 -174 -121 -256
-136 -131 -24 -326 -3 -424 46 -69 35 -133 104 -169 181 -28 58 -31 76 -31
152 1 140 48 242 160 353 132 130 296 190 503 185 83 -2 115 -8 155 -25z m8
-1352 c-4 -207 -55 -401 -159 -601 -84 -162 -192 -296 -443 -553 -241 -246
-286 -303 -296 -371 -14 -87 63 -165 161 -165 113 0 361 150 593 359 40 36 93
83 117 104 l44 39 140 -287 c86 -177 137 -292 132 -301 -15 -27 -151 -138
-257 -209 -196 -131 -402 -220 -619 -267 -85 -19 -133 -22 -306 -22 -180 -1
-216 2 -292 21 -235 60 -387 204 -445 423 -26 99 -23 339 5 445 26 94 93 238
153 327 59 88 189 219 364 367 337 287 479 467 532 677 l18 71 255 35 c140 20
266 35 280 34 l25 -1 -2 -125z m1537 -1312 c229 -43 368 -250 316 -472 -38
-159 -138 -280 -296 -359 -120 -59 -207 -80 -340 -81 -129 -1 -189 17 -258 79
-176 158 -177 487 -1 679 137 150 330 202 579 154z m-3375 -1478 c17 -19 17
-21 -1 -41 -10 -12 -45 -44 -77 -71 -56 -49 -58 -50 -78 -32 -20 18 -19 19 53
91 40 40 75 73 79 73 3 0 14 -9 24 -20z"/>
<path d="M6163 6821 c-61 -64 -141 -148 -178 -188 l-66 -72 122 -126 c67 -69
126 -124 131 -123 4 2 91 83 193 181 l185 179 -126 134 c-70 74 -132 133 -138
133 -6 -1 -61 -54 -123 -118z"/>
<path d="M5865 6510 l-29 -31 127 -127 127 -127 29 30 30 30 -122 128 c-67 70
-125 128 -128 127 -3 0 -18 -14 -34 -30z"/>
<path d="M6468 6308 c-103 -95 -186 -176 -185 -179 4 -14 222 -259 228 -257
15 6 378 323 378 331 1 7 -104 130 -224 265 -9 10 -52 -25 -197 -160z"/>
<path d="M6226 6081 l-28 -30 108 -124 c60 -69 114 -126 120 -126 12 -1 54 41
54 53 0 8 -208 249 -219 254 -4 1 -20 -11 -35 -27z"/>
</g>
</svg>
