<svg xmlns="http://www.w3.org/2000/svg" id="chopsticks" data-name="chopsticks" width="315.7" height="18.7"
  viewBox="0 0 287 17" fill="none">
  <path d="M264.205 15.9471L275.821 16.1281L275.899 10.9323L264.118 10.9413L264.205 15.9471Z" fill="#F59E0B" />
  <path d="M19.1882 11.1276L259.118 10.9451L259.204 15.8691L19.1431 12.1278L19.1882 11.1276Z" fill="#F59E0B" />
  <path d="M263.118 10.942L260.118 10.9443L260.204 15.8847L263.205 15.9315L263.118 10.942Z" fill="#F59E0B" />
  <path d="M269.296 7.56935L286.876 7.36269L286.587 0.0380554L269.052 0.594813L269.296 7.56935Z" fill="#F59E0B" />
  <path d="M0.305176 9.12782L264.223 0.748151L264.463 7.62616L0.305176 10.7314V9.12782Z" fill="#F59E0B" />
  <path d="M268.052 0.626541L265.222 0.716409L265.463 7.6144L268.295 7.5811L268.052 0.626541Z" fill="#F59E0B" />
</svg>