<svg xmlns="http://www.w3.org/2000/svg" id="transparent-geometry" data-name="Transparent Geometry" width="300"
  height="300" viewBox="0 0 300 300" opacity="0.05">
  <defs>
    <style>
      .cls-1 {
        fill: #979797;
      }

      .cls-2 {
        fill: #525252;
      }

      .cls-3 {
        fill: #6b6b6b;
      }

      .cls-4 {
        fill: #363636;
      }

      .cls-5 {
        fill: gray;
      }
    </style>
  </defs>
  <path class="cls-1"
    d="M0,165.51V135a5.55,5.55,0,0,0,2.56-.87Q12.8,129.6,23,125l.95.11Q29.5,137.53,35.07,150a13.71,13.71,0,0,1-.47,1.41c-3.27,7.36-6.52,14.73-9.86,22.05-.76,1.67-.47,2.6,1.21,3.31,2.82,1.2,5.64,2.45,8.39,3.81,5.2,2.57,10.72,4.49,15.71,7.49l0,25c-3.31,1.52-6.63,3-9.9,4.57-5.35,2.58-11,4.52-16.11,7.58l-.82-.79c-3.27-7.35-6.5-14.71-9.85-22a4.73,4.73,0,0,1,.06-4.43c3-6.53,5.9-13.16,9-19.66,1-2,.52-2.91-1.45-3.63s-3.61-1.66-5.45-2.42C10.33,170,5.42,167.24,0,165.51Z" />
  <path class="cls-2"
    d="M112.51,300H87c-.27-.69-.5-1.41-.8-2.09Q81.38,286.93,76.51,276c7-3.19,14.07-6.42,21.14-9.54a3.54,3.54,0,0,0,2.41-3.81c-.12-8.06,0-16.14-.11-24.2,0-2.12.59-3.26,2.64-4.13,7-3,14-6.23,20.93-9.38a3.86,3.86,0,0,0,.49.06c3.3,8.51,7.4,16.68,11,25.07-.42,1-.82,2-1.27,3-3.45,7.62-7.22,15.1-10.25,22.91Q118,287.95,112.51,300Z" />
  <path class="cls-3"
    d="M0,35.56c0-11.1,0-22.2,0-33.31C0,.62.11-.12,2.1,0c3.46.23,7,.07,10.43.07Q17.6,11.45,22.65,22.83c.66,1.49,1.55,1.65,3,1,3.6-1.72,7.22-3.39,10.9-4.93,4.59-1.93,8.91-4.48,13.73-5.85.93.35,1.88.66,2.79,1.06Q64.79,19.3,76.52,24.55l0,.48c-2.13,3.21-3.42,6.84-5,10.3-2.25,4.91-4.78,9.7-6.61,14.8H35.08C34.56,49,34,47.86,33.5,46.73c-2.93-6.44-5.9-12.85-8.75-19.33-.88-2-1.83-2.28-3.81-1.34C14,29.33,7,32.41,0,35.56Z" />
  <path class="cls-1"
    d="M112.51.08h75Q182,12.32,176.58,24.57H176c-8.15-3.71-16.3-7.4-24.44-11.14a3.67,3.67,0,0,0-3.32.11q-12.1,5.53-24.22,11h-.51Z" />
  <path class="cls-1"
    d="M300,135v30.48a5.18,5.18,0,0,0-2.56.86Q287.2,171,277,175.59a1.23,1.23,0,0,0-.47,0c-3.65-6.34-5.89-13.35-9.4-19.74-2.08-3.78-2.39-7.23.05-10.89a22.25,22.25,0,0,0,1.75-3.84c2.31-5.5,5.12-10.79,7.08-16.44l.75.12c3.32,1.52,6.61,3.12,10,4.55C291.15,131.21,295.36,133.59,300,135Z" />
  <path class="cls-2"
    d="M23.19,224.36l.82.79a21.86,21.86,0,0,0,.85,2.85c2.73,6.07,5.3,12.21,8.35,18.11,1.61,3.09,1.43,5.61,0,8.64-3.23,6.92-6.16,14-9.2,21l-.93-.12c-4.5-2.06-9-4.19-13.5-6.18-3.16-1.38-6.12-3.25-9.56-3.95V235c5-1.52,9.57-4.09,14.32-6.22C17.35,227.42,20.61,226.56,23.19,224.36Z" />
  <path class="cls-2"
    d="M300,235v30.49c-3.2.69-5.94,2.51-8.93,3.72-4.91,2-9.5,4.71-14.59,6.3-1.25-2.72-2.54-5.43-3.75-8.17-2.57-5.77-5.09-11.56-7.63-17.34.46-.88,1-1.73,1.37-2.63q5.07-11.21,10.12-22.42a9.77,9.77,0,0,1,3.23,1.2C286.54,229,293,232.51,300,235Z" />
  <path class="cls-2"
    d="M300,35.56v30a7.65,7.65,0,0,0-3,1l-20.4,9Q271.15,63.77,265.76,52a3.43,3.43,0,0,1-.19-3.09c3.66-7.93,7.27-15.87,10.9-23.81C284.43,28.29,292.17,32,300,35.56Z" />
  <path class="cls-2"
    d="M0,35.56c7-3.15,14-6.23,20.9-9.5,2-.94,2.93-.66,3.81,1.34,2.85,6.48,5.82,12.89,8.75,19.33.52,1.13,1.06,2.26,1.58,3.39Q29.29,62.84,23.49,75.56C19.93,74,16.39,72.41,12.79,71,8.52,69.21,4.55,66.74,0,65.55Z" />
  <path class="cls-1"
    d="M112.51,300q5.49-12,11-24c.7.25,1.43.45,2.1.76q11.14,5,22.27,10a4.52,4.52,0,0,0,4,.12c8-3.68,16-7.3,24.05-10.94l.64,0c1.88,4.17,3.84,8.31,5.61,12.53,1.61,3.82,3.85,7.38,4.8,11.47Z" />
  <path class="cls-2"
    d="M176.58,24.57,187.49.08H213c.75,3.19,2.52,6,3.75,9,2.15,5.22,5,10.14,6.75,15.55l0,.5c-1.3,0-2.34.74-3.48,1.23-6.67,2.87-13.13,6.25-20,8.75Z" />
  <path class="cls-2"
    d="M112.51.08l11,24.49c-1.07.45-2.15.87-3.2,1.34L100,35.06a7.4,7.4,0,0,1-2.81-.93c-6.91-3-13.59-6.46-20.65-9.1l0-.48c.88-3.5,2.84-6.55,4.18-9.85C82.7,9.78,85.42,5.17,87,.08Z" />
  <path class="cls-4"
    d="M0,65.55c4.51,1.19,8.48,3.66,12.75,5.4,3.6,1.46,7.14,3.07,10.7,4.61a2.13,2.13,0,0,1,.13.43c-3.4,7.39-6.77,14.8-10.24,22.17a4.52,4.52,0,0,0,.06,4.23c3,6.55,6,13.16,9,19.74A4.06,4.06,0,0,1,23,125q-10.2,4.59-20.4,9.17A5.55,5.55,0,0,1,0,135Z" />
  <path class="cls-4"
    d="M23.19,224.36c-2.58,2.2-5.84,3.06-8.83,4.41C9.61,230.9,5.05,233.47,0,235V165.51c5.38,1.73,10.29,4.53,15.48,6.69,1.84.76,3.59,1.75,5.45,2.42s2.42,1.59,1.45,3.63c-3.12,6.5-6,13.13-9,19.66a4.73,4.73,0,0,0-.06,4.43C16.69,209.65,19.92,217,23.19,224.36Z" />
  <path class="cls-4"
    d="M276.53,75.58l20.4-9a7.65,7.65,0,0,1,3-1V135c-4.61-1.44-8.82-3.82-13.24-5.7-3.36-1.43-6.65-3-10-4.55.49-1.24.92-2.5,1.47-3.7,2.73-6.07,5.44-12.15,8.27-18.18a5.72,5.72,0,0,0-.1-5.65c-1.37-2.56-2.34-5.33-3.63-7.94-2.17-4.39-3.73-9.07-6.32-13.26A2.43,2.43,0,0,1,276.53,75.58Z" />
  <path class="cls-4"
    d="M300,235c-6.94-2.48-13.43-6-20.18-8.85a9.77,9.77,0,0,0-3.23-1.2,3.54,3.54,0,0,1-.08-.45c3.88-7.51,7-15.36,10.6-23a3.76,3.76,0,0,0-.28-3.34c-1.88-4.06-3.84-8.09-5.56-12.22-1.42-3.44-3.52-6.6-4.24-10.32q10.2-4.62,20.41-9.22a5.18,5.18,0,0,1,2.56-.86Z" />
  <path class="cls-3"
    d="M187,300c-1-4.09-3.19-7.65-4.8-11.47-1.77-4.22-3.73-8.36-5.61-12.53L200,265.46c4.18,1.84,8.38,3.61,12.52,5.52,3.52,1.63,7.26,2.82,10.48,5.07a15.19,15.19,0,0,1-.62,2.12c-2.71,6-5.46,12-8.19,18.06A8.25,8.25,0,0,0,213,300Z" />
  <path class="cls-5"
    d="M50.25,13c-4.82,1.37-9.14,3.92-13.73,5.85-3.68,1.54-7.3,3.21-10.9,4.93-1.42.68-2.31.52-3-1Q17.63,11.45,12.53.08H50C50.15,4.39,49.75,8.72,50.25,13Z" />
  <path class="cls-4"
    d="M50.25,13c-.5-4.3-.1-8.63-.22-12.94H87c-1.6,5.09-4.32,9.7-6.32,14.62-1.34,3.3-3.3,6.35-4.18,9.85Q64.78,19.31,53,14.08C52.13,13.68,51.18,13.37,50.25,13Z" />
  <path class="cls-2" d="M250,.08h37a7.55,7.55,0,0,1-1,3.05l-9.48,21.43L250,12.51Z" />
  <path class="cls-4" d="M250,.08l0,12.43L223.49,24.58c-1.74-5.41-4.6-10.33-6.75-15.55-1.23-3-3-5.76-3.75-8.95Z" />
  <path class="cls-4"
    d="M213,300a8.25,8.25,0,0,1,1.2-3.73c2.73-6,5.48-12,8.19-18.06a15.19,15.19,0,0,0,.62-2.12l.95-.21,26,11.72q0,6.21,0,12.4Z" />
  <path class="cls-4"
    d="M76.51,276q4.86,10.93,9.71,21.88c.3.68.53,1.4.8,2.09H50q-.11-6.24-.2-12.49l26.25-11.74C76.23,275.81,76.37,275.9,76.51,276Z" />
  <path class="cls-2" d="M250,300q0-6.19,0-12.4c.7-.26,1.41-.49,2.09-.79l24.45-10.93c3.64,8,7.48,15.87,10.5,24.12Z" />
  <path class="cls-5"
    d="M49.83,287.47,50,300H13c.38-3.49,2.51-6.29,3.75-9.44,2-5,4.8-9.69,6.32-14.91l.93.12c.43.91,1.35,1.19,2.16,1.56,5.73,2.6,11.44,5.23,17.22,7.71C45.51,285.9,47.38,287.47,49.83,287.47Z" />
  <path class="cls-3"
    d="M276.47,24.56,286,3.13a7.55,7.55,0,0,0,1-3c3.83,0,7.67.06,11.5,0,1.25,0,1.54.29,1.53,1.54-.06,11.33,0,22.66,0,34-7.8-3.58-15.54-7.27-23.5-10.49Z" />
  <path class="cls-3"
    d="M287,300c-3-8.25-6.86-16.14-10.5-24.12a1.94,1.94,0,0,1,0-.34c5.09-1.59,9.68-4.31,14.59-6.3,3-1.21,5.73-3,8.93-3.72,0,11,0,22,0,33,0,1.25-.28,1.57-1.53,1.54C294.64,299.9,290.8,300,287,300Z" />
  <path class="cls-3"
    d="M23.1,275.61c-1.52,5.22-4.35,9.89-6.32,14.91-1.24,3.15-3.37,6-3.75,9.44-3.83,0-7.66-.06-11.49,0C.28,300,0,299.71,0,298.46c.06-11,0-22,0-33,3.44.7,6.4,2.57,9.56,3.95C14.13,271.42,18.6,273.55,23.1,275.61Z" />
  <path class="cls-3"
    d="M49.83,287.47c-2.45,0-4.32-1.57-6.42-2.47-5.78-2.48-11.49-5.11-17.22-7.71-.81-.37-1.73-.65-2.16-1.56,3-7,6-14.06,9.2-21,1.41-3,1.59-5.55,0-8.64-3.05-5.9-5.62-12-8.35-18.11a21.86,21.86,0,0,1-.85-2.85c5.12-3.06,10.76-5,16.11-7.58,3.27-1.58,6.59-3,9.9-4.57,8.85,3.49,17.37,7.75,26.07,11.6A173.74,173.74,0,0,1,67.35,245c-2.08,4.07-1.73,7.29.14,11.15,3.12,6.42,5.75,13.07,8.59,19.62Z" />
  <path class="cls-2"
    d="M35.07,150Q29.51,137.54,24,125.1a9,9,0,0,1,1.44-1Q37.71,118.56,50,113c1.48,1.56,2.92,3.16,4.45,4.67C61,124,66.73,131,73.42,137.06a9.47,9.47,0,0,0,2.21,2.67c6.38,6.67,12.82,13.29,19.15,20,1.69,1.79,3.71,3.33,4.87,5.6-1.49.74-3,1.52-4.46,2.21q-9.27,4.26-18.55,8.49l-.42,0c-3.42-7.85-6.89-15.67-10.22-23.56-.81-1.92-2-2.51-4-2.49C53,150.06,44.05,150,35.07,150Z" />
  <path class="cls-5"
    d="M35.07,150c9,0,18,.09,27,0,2,0,3.17.57,4,2.49,3.33,7.89,6.8,15.71,10.22,23.56L50.05,188c-5-3-10.51-4.92-15.71-7.49-2.75-1.36-5.57-2.61-8.39-3.81-1.68-.71-2-1.64-1.21-3.31,3.34-7.32,6.59-14.69,9.86-22.05A13.71,13.71,0,0,0,35.07,150Z" />
  <path class="cls-3"
    d="M50,113q-12.33,5.55-24.65,11.12a9,9,0,0,0-1.44,1L23,125a4.06,4.06,0,0,0-.59-2.86c-3-6.58-5.92-13.19-9-19.74a4.52,4.52,0,0,1-.06-4.23C16.85,90.79,20.22,83.38,23.62,76c8.83,3.41,17.3,7.62,25.89,11.57C49.2,96.06,50.07,104.53,50,113Z" />
  <path class="cls-2"
    d="M50.05,188l26.17-12,.42,0a8.35,8.35,0,0,0,.38,1.43q5.24,11.27,10.5,22.53c-1.2,2.65-2.33,5.33-3.61,7.94-2.68,5.51-4.72,11.33-7.82,16.65-8.7-3.85-17.22-8.11-26.07-11.6Z" />
  <path class="cls-5"
    d="M76.09,224.6c3.1-5.32,5.14-11.14,7.82-16.65,1.28-2.61,2.41-5.29,3.61-7.94l25-.06c3.25,8.51,7.39,16.64,11,25-7,3.15-13.9,6.38-20.93,9.38-2,.87-2.67,2-2.64,4.13.11,8.06,0,16.14.11,24.2a3.54,3.54,0,0,1-2.41,3.81c-7.07,3.12-14.1,6.35-21.14,9.54-.14-.09-.28-.18-.43-.26-2.84-6.55-5.47-13.2-8.59-19.62-1.87-3.86-2.22-7.08-.14-11.15A173.74,173.74,0,0,0,76.09,224.6Z" />
  <path class="cls-4"
    d="M135,250.06c-3.59-8.39-7.69-16.56-11-25.07.88-.46,1.74-1,2.64-1.38L150,212.92c9.69,4.37,19.37,8.77,29.08,13.09,1.71.76,2.06,1.38.84,3-5.05,6.91-10,13.92-14.93,20.89Z" />
  <path class="cls-3"
    d="M135,250.06l30-.13c1,4.22,3.36,7.88,4.94,11.87,1.89,4.75,4.57,9.17,6,14.11-8,3.64-16,7.26-24.05,10.94a4.52,4.52,0,0,1-4-.12q-11.11-5.06-22.27-10c-.67-.31-1.4-.51-2.1-.76,3-7.81,6.8-15.29,10.25-22.91C134.18,252,134.58,251.05,135,250.06Z" />
  <path class="cls-1"
    d="M150,212.92l-23.33,10.69c-.9.42-1.76.92-2.64,1.38a3.86,3.86,0,0,1-.49-.06c-3.65-8.34-7.79-16.47-11-25q5.34-12.21,10.67-24.4a.3.3,0,0,0,.26.06c8.76,4.22,17.63,8.21,26.56,12Q150,200.28,150,212.92Z" />
  <path class="cls-1"
    d="M49.51,87.56c-8.59-4-17.06-8.16-25.89-11.57a2.13,2.13,0,0,0-.13-.43Q29.3,62.84,35.08,50.12H64.87c.57.92,1.1,1.86,1.71,2.75q7,10,14,20.06c-.32,1-1.17,1.31-2,1.69-2.88,1.29-5.71,2.67-8.6,3.92C63.14,81.51,56.52,85,49.51,87.56Z" />
  <path class="cls-4"
    d="M80.59,72.94q-7-10-14-20.06c-.61-.89-1.14-1.83-1.71-2.75,1.83-5.1,4.36-9.89,6.61-14.8,1.59-3.46,2.88-7.09,5-10.3,7.06,2.64,13.74,6.13,20.65,9.1a7.4,7.4,0,0,0,2.81.93q-.21,15-.41,30c-2.12,1-4.21,2-6.37,2.89-4.09,1.64-7.89,4-12.16,5.16A1.92,1.92,0,0,0,80.59,72.94Z" />
  <path class="cls-5"
    d="M150,212.92q0-12.63,0-25.27c9.63-4.31,19.25-8.66,28.91-12.89,1.9-.83,2-1.54.85-3.18-5-7-9.87-14-14.79-21a15,15,0,0,1,.61-2.14c3-6.83,6-13.69,9.26-20.44,1.05-2.22.58-3.18-1.55-4.14-7.8-3.54-15.53-7.22-23.28-10.85V87.55c.3-.16.59-.32.89-.46,7.69-3.5,15.38-7,23.1-10.48,1.6-.71,2.2-1.49,1.27-3.2A59.18,59.18,0,0,1,172.74,68c-2.56-6-5.61-11.82-7.85-18,1.82-4.08,3.69-8.13,5.44-12.23,1.87-4.4,4.2-8.61,5.65-13.19h.6L200,35.06q0,15,0,30-11,4.91-22,9.82c-1.56.69-1.48,1.71-.86,3,1.62,3.45,3.08,7,4.76,10.4,2,3.93,3.36,8.11,5.68,11.86-3.43,7.59-6.83,15.18-10.33,22.73-.72,1.56-.55,2.41,1.06,3.09,7.22,3,14.4,6.12,21.6,9.18q0,15.17,0,30.31c-5.61,2.51-11.21,5-16.84,7.5-1.21.54-1.46,1.14-.66,2.26q8.82,12.38,17.6,24.79a4,4,0,0,0,0,.49c-1.23,1.67-2.49,3.31-3.67,5q-6.75,9.69-13.44,19.42c-.7,1-1.33,2.13.31,2.84,5.62,2.42,11.06,5.27,16.84,7.35L200,265.46,176.58,276l-.64,0c-1.46-4.94-4.14-9.36-6-14.11-1.58-4-3.93-7.65-4.94-11.87,5-7,9.88-14,14.93-20.89,1.22-1.65.87-2.27-.84-3C169.35,221.69,159.67,217.29,150,212.92Z" />
  <path class="cls-4"
    d="M176,24.58c-1.45,4.58-3.78,8.79-5.65,13.19-1.75,4.1-3.62,8.15-5.44,12.23l-29.8,0c-3-6.72-6.07-13.43-9-20.17-.77-1.72-1.89-3.32-2-5.28q12.12-5.51,24.22-11a3.67,3.67,0,0,1,3.32-.11C159.68,17.18,167.83,20.87,176,24.58Z" />
  <path class="cls-5"
    d="M124,24.57c.16,2,1.28,3.56,2,5.28,3,6.74,6,13.45,9,20.17L118.53,73.57l-.49.18a8.59,8.59,0,0,0-1.55-1.18c-5.64-2.53-11.3-5-16.95-7.52q.21-15,.41-30l20.34-9.15c1-.47,2.13-.89,3.2-1.34Z" />
  <path class="cls-5"
    d="M276,124.66c-2,5.65-4.77,10.94-7.08,16.44a22.25,22.25,0,0,1-1.75,3.84c-2.44,3.66-2.13,7.11-.05,10.89,3.51,6.39,5.75,13.4,9.4,19.74-.87.48-1.7,1-2.6,1.44q-12,5.53-24,11L219,174a6.45,6.45,0,0,1,1.44-2.87c4.29-6.13,8.53-12.29,12.92-18.34a4.72,4.72,0,0,0,.51-5.49c-1.71-3.41-3.1-7-4.8-10.41-2-3.92-3.29-8.15-5.75-11.83l.27-1c3.21-.4,5.82-2.32,8.72-3.49,6-2.43,11.67-5.55,17.79-7.69C258.81,116.65,267.51,120.43,276,124.66Z" />
  <path class="cls-2"
    d="M250,188q12-5.5,24-11c.9-.41,1.73-1,2.6-1.44a1.23,1.23,0,0,1,.47,0c.72,3.72,2.82,6.88,4.24,10.32,1.72,4.13,3.68,8.16,5.56,12.22a3.76,3.76,0,0,1,.28,3.34c-3.57,7.66-6.72,15.51-10.6,23a26.46,26.46,0,0,1-2.81-.94c-6.4-2.91-12.72-6-19.2-8.71-2.8-1.17-4.95-2.43-4.92-5.79C249.07,202,250,195,250,188Z" />
  <path class="cls-2"
    d="M276,124.66c-8.5-4.23-17.2-8-25.9-11.78L250,87.59l5.72-2.42c6.95-3,13.64-6.46,20.71-9.12,2.59,4.19,4.15,8.87,6.32,13.26,1.29,2.61,2.26,5.38,3.63,7.94a5.72,5.72,0,0,1,.1,5.65c-2.83,6-5.54,12.11-8.27,18.18-.55,1.2-1,2.46-1.47,3.7Z" />
  <path class="cls-3"
    d="M249.55,209.05c0,3.36,2.12,4.62,4.92,5.79,6.48,2.72,12.8,5.8,19.2,8.71a26.46,26.46,0,0,0,2.81.94,3.54,3.54,0,0,0,.08.45q-5.06,11.2-10.12,22.42c-.41.9-.91,1.75-1.37,2.63l-30-.06L219,227c9-4.13,17.94-8.37,27-12.33C248.71,213.45,250.05,212,249.55,209.05Z" />
  <path class="cls-5"
    d="M235.06,249.93l30,.06c2.54,5.78,5.06,11.57,7.63,17.34,1.21,2.74,2.5,5.45,3.75,8.17a1.94,1.94,0,0,0,0,.34L252,286.77c-.68.3-1.39.53-2.09.79l-26-11.72c1.44-4.59,3.88-8.74,5.68-13.17S233.93,254.46,235.06,249.93Z" />
  <path class="cls-5"
    d="M276.45,76.05c-7.07,2.66-13.76,6.16-20.71,9.12L250,87.59c-4-1.77-8.05-3.6-12.11-5.31-4.81-2-9.35-4.71-14.4-6.21l0-.55q5.46-12,10.93-24.06a2.63,2.63,0,0,0,.08-2.37q-5.55-12-11-24l0-.5L250,12.51l26.52,12v.51C272.84,33,269.23,41,265.57,48.88a3.43,3.43,0,0,0,.19,3.09q5.4,11.81,10.77,23.61A2.43,2.43,0,0,0,276.45,76.05Z" />
  <path class="cls-4"
    d="M223.46,25.08q5.5,12,11,24a2.63,2.63,0,0,1-.08,2.37q-5.47,12-10.93,24.06L200.05,65q0-15,0-30c6.84-2.5,13.3-5.88,20-8.75C221.12,25.82,222.16,25.08,223.46,25.08Z" />
  <path class="cls-1"
    d="M235.06,249.93c-1.13,4.53-3.69,8.46-5.43,12.74s-4.24,8.58-5.68,13.17l-.95.21c-3.22-2.25-7-3.44-10.48-5.07-4.14-1.91-8.34-3.68-12.52-5.52q0-15.18.07-30.35c6.46-2.38,12.63-5.42,18.94-8.16h0Z" />
  <path class="cls-5"
    d="M80.59,72.94a1.92,1.92,0,0,1,.42.16c3.59,5.15,7.23,10.27,10.76,15.47,2.59,3.82,5.74,7.26,7.74,11.48a21.2,21.2,0,0,1-1.28,2.4c-5.85,8.39-11.66,16.8-17.64,25.1-2.32,3.22-4.12,6.84-7.17,9.51C66.73,131,61,124,54.49,117.69c-1.53-1.51-3-3.11-4.45-4.67,0-8.49-.84-17-.53-25.46,7-2.58,13.63-6,20.47-9,2.89-1.25,5.72-2.63,8.6-3.92C79.42,74.25,80.27,73.93,80.59,72.94Z" />
  <path class="cls-1"
    d="M73.42,137.06c3-2.67,4.85-6.29,7.17-9.51,6-8.3,11.79-16.71,17.64-25.1a21.2,21.2,0,0,0,1.28-2.4l.92.54L126,137l-.23,1.29c-6,6.32-12.14,12.58-18.07,19-2.48,2.67-5.38,5-7.37,8.07h-.71c-1.16-2.27-3.18-3.81-4.87-5.6C88.45,153,82,146.4,75.63,139.73A9.47,9.47,0,0,1,73.42,137.06Z" />
  <path class="cls-4"
    d="M99.65,165.35h.71c2.6,1.25,5.17,2.58,7.82,3.72,5,2.14,9.77,4.8,15,6.47L112.48,200l-25,.06Q82.27,188.75,77,177.48a8.35,8.35,0,0,1-.38-1.43q9.27-4.25,18.55-8.49C96.69,166.87,98.16,166.09,99.65,165.35Z" />
  <path class="cls-4"
    d="M164.94,150.6c4.92,7,9.8,14,14.79,21,1.18,1.64,1.05,2.35-.85,3.18-9.66,4.23-19.28,8.58-28.91,12.89-8.93-3.83-17.8-7.82-26.56-12q5.81-12.6,11.59-25.2Z" />
  <path class="cls-2"
    d="M135,150.41q-5.79,12.6-11.59,25.2a.3.3,0,0,1-.26-.06c-5.2-1.67-10-4.33-15-6.47-2.65-1.14-5.22-2.47-7.82-3.72,2-3.12,4.89-5.4,7.37-8.07,5.93-6.42,12-12.68,18.07-19C129.88,141.57,132.2,146.17,135,150.41Z" />
  <path class="cls-3"
    d="M100.43,100.59l-.92-.54c-2-4.22-5.15-7.66-7.74-11.48C88.24,83.37,84.6,78.25,81,73.1c4.27-1.21,8.07-3.52,12.16-5.16,2.16-.87,4.25-1.92,6.37-2.89,5.65,2.5,11.31,5,16.95,7.52A8.59,8.59,0,0,1,118,73.75a20.39,20.39,0,0,1-1.06,2c-4.8,6.93-9.63,13.84-14.41,20.79C101.7,97.76,100.46,98.87,100.43,100.59Z" />
  <path class="cls-4"
    d="M100.43,100.59c0-1.72,1.27-2.83,2.14-4.1,4.78-6.95,9.61-13.86,14.41-20.79a20.39,20.39,0,0,0,1.06-2l.49-.18c3.34,1.5,6.67,3,10,4.49L150,87.55q0,12.74,0,25.48c-.91.85-1.85,1.67-2.7,2.56q-9.36,9.81-18.69,19.62c-.72.75-1.31,1.77-2.56,1.79Z" />
  <path class="cls-4"
    d="M249.55,209.05c.5,2.92-.84,4.4-3.53,5.57-9.07,4-18,8.2-27,12.33h0c-1.07-1.48-2.15-2.95-3.21-4.43l-15.77-22a4,4,0,0,1,0-.49,12.88,12.88,0,0,0,1-1.11q8.73-12.42,17.45-24.86L219,174,250,188C250,195,249.07,202,249.55,209.05Z" />
  <path class="cls-2"
    d="M150,87.55l-21.42-9.49c-3.35-1.49-6.68-3-10-4.49L135.09,50l29.8,0c2.24,6.16,5.29,12,7.85,18a59.18,59.18,0,0,0,2.49,5.43c.93,1.71.33,2.49-1.27,3.2-7.72,3.45-15.41,7-23.1,10.48C150.56,87.23,150.27,87.39,150,87.55Z" />
  <path class="cls-3"
    d="M126,137c1.25,0,1.84-1,2.56-1.79q9.36-9.78,18.69-19.62c.85-.89,1.79-1.71,2.7-2.56,7.75,3.63,15.48,7.31,23.28,10.85,2.13,1,2.6,1.92,1.55,4.14-3.22,6.75-6.21,13.61-9.26,20.44a15,15,0,0,0-.61,2.14L135,150.41c-2.8-4.24-5.12-8.84-9.2-12.12C125.88,137.86,126,137.43,126,137Z" />
  <path class="cls-3"
    d="M219,174l-.52.07A146.85,146.85,0,0,0,200,165.45q0-15.15,0-30.31c3.58-1.06,6.8-3,10.22-4.42,4.41-1.86,8.58-4.27,13.18-5.7,2.46,3.68,3.79,7.91,5.75,11.83,1.7,3.42,3.09,7,4.8,10.41a4.72,4.72,0,0,1-.51,5.49c-4.39,6.05-8.63,12.21-12.92,18.34A6.45,6.45,0,0,0,219,174Z" />
  <path class="cls-1"
    d="M200.05,65l23.43,10.5,0,.55q-5.52,12-11,24.08H187.6c-2.32-3.75-3.73-7.93-5.68-11.86-1.68-3.42-3.14-7-4.76-10.4-.62-1.33-.7-2.35.86-3Q189,69.95,200.05,65Z" />
  <path class="cls-2"
    d="M187.6,100.14h24.89c2.61,5.84,5.16,11.7,7.86,17.5,1,2.17,1.52,4.6,3.25,6.41l-.27,1c-4.6,1.43-8.77,3.84-13.18,5.7-3.42,1.45-6.64,3.36-10.22,4.42-7.2-3.06-14.38-6.15-21.6-9.18-1.61-.68-1.78-1.53-1.06-3.09C180.77,115.32,184.17,107.73,187.6,100.14Z" />
  <path class="cls-3"
    d="M200,200.49l15.77,22c1.06,1.48,2.14,2.95,3.21,4.43-6.31,2.74-12.48,5.78-18.94,8.16-5.78-2.08-11.22-4.93-16.84-7.35-1.64-.71-1-1.82-.31-2.84q6.71-9.72,13.44-19.42C197.54,203.8,198.8,202.16,200,200.49Z" />
  <path class="cls-2"
    d="M200,165.45A146.85,146.85,0,0,1,218.49,174q-8.73,12.43-17.45,24.86a12.88,12.88,0,0,1-1,1.11q-8.79-12.41-17.6-24.79c-.8-1.12-.55-1.72.66-2.26C188.74,170.48,194.34,168,200,165.45Z" />
  <path class="cls-3"
    d="M223.6,124.06c-1.73-1.81-2.24-4.24-3.25-6.41-2.7-5.8-5.25-11.66-7.86-17.5q5.5-12,11-24.08c5.05,1.5,9.59,4.18,14.4,6.21C242,84,246,85.82,250,87.59l.09,25.29c-6.12,2.14-11.8,5.26-17.79,7.69C229.42,121.74,226.81,123.66,223.6,124.06Z" />
</svg>